<svg xmlns="http://www.w3.org/2000/svg" xmlns:xlink="http://www.w3.org/1999/xlink" width="1400" zoomAndPan="magnify" viewBox="0 0 1050 449.999984" height="600" preserveAspectRatio="xMidYMid meet" version="1.0"><defs><g/><clipPath id="8ab0a58fba"><path d="M 45 153 L 104.519531 153 L 104.519531 339.660156 L 45 339.660156 Z M 45 153 " clip-rule="nonzero"/></clipPath><clipPath id="b9bdb8984a"><path d="M 345.488281 153.285156 L 404.992188 153.285156 L 404.992188 339.292969 L 345.488281 339.292969 Z M 345.488281 153.285156 " clip-rule="nonzero"/></clipPath><clipPath id="d8b4be34ca"><path d="M 196.679688 110.699219 L 253 110.699219 L 253 172 L 196.679688 172 Z M 196.679688 110.699219 " clip-rule="nonzero"/></clipPath></defs><path fill="#050505" d="M 167.742188 214.9375 C 163.328125 214.9375 159.214844 215.773438 155.394531 217.445312 C 151.578125 219.113281 148.265625 221.367188 145.464844 224.199219 C 142.660156 227.03125 140.441406 230.359375 138.800781 234.171875 C 137.160156 237.988281 136.339844 242.046875 136.339844 246.339844 C 136.339844 250.636719 137.160156 254.6875 138.800781 258.507812 C 140.441406 262.324219 142.660156 265.648438 145.464844 268.480469 C 148.265625 271.316406 151.578125 273.566406 155.394531 275.238281 C 159.214844 276.90625 163.328125 277.738281 167.742188 277.738281 C 172.09375 277.738281 176.183594 276.90625 179.996094 275.238281 C 183.8125 273.566406 187.140625 271.300781 189.976562 268.4375 C 192.804688 265.574219 195.042969 262.253906 196.683594 258.460938 C 198.324219 254.671875 199.144531 250.636719 199.144531 246.339844 C 199.144531 242.046875 198.324219 238.007812 196.683594 234.21875 C 195.042969 230.429688 192.804688 227.109375 189.976562 224.242188 C 187.140625 221.382812 183.8125 219.113281 179.996094 217.445312 C 176.183594 215.773438 172.09375 214.9375 167.742188 214.9375 Z M 217.839844 246.339844 C 217.839844 260.296875 212.949219 272.105469 203.167969 281.765625 C 193.265625 291.546875 181.457031 296.4375 167.742188 296.4375 C 153.902344 296.4375 142.09375 291.546875 132.316406 281.765625 C 122.53125 271.988281 117.640625 260.175781 117.640625 246.339844 C 117.640625 232.503906 122.53125 220.695312 132.316406 210.910156 C 142.09375 201.132812 153.902344 196.242188 167.742188 196.242188 C 181.457031 196.242188 193.265625 201.132812 203.167969 210.910156 C 208.058594 215.804688 211.710938 221.203125 214.128906 227.109375 C 216.542969 233.011719 217.777344 239.421875 217.839844 246.339844 " fill-opacity="1" fill-rule="nonzero"/><path fill="#050505" d="M 282.25 214.9375 C 277.835938 214.9375 273.722656 215.773438 269.90625 217.445312 C 266.089844 219.113281 262.777344 221.367188 259.976562 224.199219 C 257.171875 227.03125 254.953125 230.359375 253.3125 234.171875 C 251.671875 237.988281 250.851562 242.046875 250.851562 246.339844 C 250.851562 250.636719 251.671875 254.6875 253.3125 258.507812 C 254.953125 262.324219 257.171875 265.648438 259.976562 268.480469 C 262.777344 271.316406 266.089844 273.566406 269.90625 275.238281 C 273.722656 276.90625 277.835938 277.738281 282.25 277.738281 C 286.605469 277.738281 290.6875 276.90625 294.511719 275.238281 C 298.324219 273.566406 301.648438 271.300781 304.484375 268.4375 C 307.316406 265.574219 309.550781 262.253906 311.191406 258.460938 C 312.828125 254.671875 313.652344 250.636719 313.652344 246.339844 C 313.652344 242.046875 312.828125 238.007812 311.191406 234.21875 C 309.550781 230.429688 307.316406 227.109375 304.484375 224.242188 C 301.648438 221.382812 298.324219 219.113281 294.511719 217.445312 C 290.6875 215.773438 286.605469 214.9375 282.25 214.9375 Z M 332.351562 246.339844 C 332.351562 260.296875 327.457031 272.105469 317.675781 281.765625 C 307.777344 291.546875 295.96875 296.4375 282.25 296.4375 C 268.414062 296.4375 256.605469 291.546875 246.828125 281.765625 C 237.046875 271.988281 232.15625 260.175781 232.15625 246.339844 C 232.15625 232.503906 237.046875 220.695312 246.828125 210.910156 C 256.605469 201.132812 268.414062 196.242188 282.25 196.242188 C 295.96875 196.242188 307.777344 201.132812 317.675781 210.910156 C 322.566406 215.804688 326.222656 221.203125 328.640625 227.109375 C 331.054688 233.011719 332.289062 239.421875 332.351562 246.339844 " fill-opacity="1" fill-rule="nonzero"/><g clip-path="url(#8ab0a58fba)"><path fill="#333333" d="M 95.101562 153.390625 C 97.78125 153.390625 100 154.300781 101.765625 156.121094 C 103.523438 157.9375 104.402344 160.160156 104.402344 162.785156 C 104.402344 165.46875 103.523438 167.6875 101.765625 169.449219 C 100 171.207031 97.78125 172.085938 95.101562 172.085938 C 87.703125 172.085938 84.003906 175.785156 84.003906 183.179688 L 84.003906 225.941406 C 84.003906 234.53125 82.035156 241.332031 78.101562 246.339844 C 82.035156 251.351562 84.003906 258.148438 84.003906 266.738281 L 84.003906 309.5 C 84.003906 316.894531 87.703125 320.59375 95.101562 320.59375 C 97.78125 320.59375 100 321.472656 101.765625 323.234375 C 103.523438 324.992188 104.402344 327.214844 104.402344 329.898438 C 104.402344 332.578125 103.523438 334.820312 101.765625 336.609375 C 100 338.394531 97.78125 339.292969 95.101562 339.292969 C 75.238281 339.292969 65.304688 329.363281 65.304688 309.5 L 65.304688 266.738281 C 65.304688 259.34375 61.640625 255.644531 54.304688 255.644531 C 51.621094 255.644531 49.398438 254.765625 47.636719 253.003906 C 45.878906 251.246094 45 249.023438 45 246.339844 C 45 243.65625 45.878906 241.4375 47.636719 239.671875 C 49.398438 237.917969 51.621094 237.039062 54.304688 237.039062 C 61.640625 237.039062 65.304688 233.339844 65.304688 225.941406 L 65.304688 183.179688 C 65.304688 163.320312 75.238281 153.390625 95.101562 153.390625 " fill-opacity="1" fill-rule="nonzero"/></g><g clip-path="url(#b9bdb8984a)"><path fill="#333333" d="M 384.6875 183.179688 L 384.6875 225.941406 C 384.6875 233.339844 388.355469 237.039062 395.6875 237.039062 C 398.375 237.039062 400.59375 237.917969 402.351562 239.671875 C 404.113281 241.4375 404.992188 243.65625 404.992188 246.339844 C 404.992188 249.023438 404.113281 251.246094 402.351562 253.003906 C 400.59375 254.765625 398.375 255.644531 395.6875 255.644531 C 388.355469 255.644531 384.6875 259.34375 384.6875 266.738281 L 384.6875 309.5 C 384.6875 329.363281 374.757812 339.292969 354.890625 339.292969 C 352.210938 339.292969 349.988281 338.394531 348.230469 336.609375 C 346.46875 334.820312 345.59375 332.578125 345.59375 329.898438 C 345.59375 327.214844 346.46875 324.992188 348.230469 323.234375 C 349.988281 321.472656 352.210938 320.59375 354.890625 320.59375 C 362.292969 320.59375 365.988281 316.894531 365.988281 309.5 L 365.988281 266.738281 C 365.988281 258.148438 367.957031 251.351562 371.890625 246.339844 C 367.957031 241.332031 365.988281 234.53125 365.988281 225.941406 L 365.988281 183.179688 C 365.988281 175.785156 362.292969 172.085938 354.890625 172.085938 C 352.210938 172.085938 349.988281 171.207031 348.230469 169.449219 C 346.46875 167.6875 345.59375 165.46875 345.59375 162.785156 C 345.59375 160.160156 346.46875 157.9375 348.230469 156.121094 C 349.988281 154.300781 352.210938 153.390625 354.890625 153.390625 C 374.757812 153.390625 384.6875 163.320312 384.6875 183.179688 " fill-opacity="1" fill-rule="nonzero"/></g><g clip-path="url(#d8b4be34ca)"><path fill="#333333" d="M 252.996094 160.808594 C 252.996094 162.359375 252.699219 163.804688 252.101562 165.144531 C 251.503906 166.488281 250.71875 167.667969 249.734375 168.679688 C 248.75 169.695312 247.566406 170.484375 246.199219 171.046875 C 244.828125 171.617188 243.398438 171.898438 241.90625 171.898438 C 239.160156 171.898438 236.804688 170.949219 234.835938 169.039062 C 232.867188 167.128906 231.257812 164.785156 230.007812 162.015625 C 228.753906 159.238281 227.84375 156.378906 227.277344 153.425781 C 226.710938 150.472656 226.429688 147.714844 226.429688 145.152344 C 226.429688 134.59375 230.929688 123.917969 239.9375 113.121094 C 241.546875 111.515625 243.367188 110.707031 245.394531 110.707031 C 247.476562 110.707031 249.269531 111.453125 250.761719 112.945312 C 252.25 114.433594 252.996094 116.226562 252.996094 118.3125 C 252.996094 119.328125 252.789062 120.371094 252.375 121.445312 C 249.6875 128.007812 248.347656 134.234375 248.347656 140.140625 C 248.347656 145.746094 249.566406 151.175781 252.015625 156.421875 C 252.671875 157.917969 252.996094 159.375 252.996094 160.808594 Z M 223.566406 160.808594 C 223.566406 162.359375 223.265625 163.804688 222.671875 165.144531 C 222.070312 166.488281 221.285156 167.667969 220.300781 168.679688 C 219.316406 169.695312 218.136719 170.484375 216.765625 171.046875 C 215.390625 171.617188 213.964844 171.898438 212.472656 171.898438 C 209.726562 171.898438 207.375 170.949219 205.40625 169.039062 C 203.4375 167.128906 201.824219 164.785156 200.574219 162.015625 C 199.320312 159.238281 198.414062 156.378906 197.847656 153.425781 C 197.28125 150.472656 196.996094 147.714844 196.996094 145.152344 C 196.996094 134.59375 201.5 123.917969 210.503906 113.121094 C 212.113281 111.515625 213.933594 110.707031 215.960938 110.707031 C 218.046875 110.707031 219.835938 111.453125 221.328125 112.945312 C 222.820312 114.433594 223.566406 116.226562 223.566406 118.3125 C 223.566406 119.328125 223.359375 120.371094 222.9375 121.445312 C 220.257812 128.007812 218.914062 134.234375 218.914062 140.140625 C 218.914062 145.746094 220.136719 151.175781 222.582031 156.421875 C 223.238281 157.917969 223.566406 159.375 223.566406 160.808594 " fill-opacity="1" fill-rule="nonzero"/></g><g fill="#050505" fill-opacity="1"><g transform="translate(446.697984, 278.759079)"><g><path d="M 3.78125 -30.109375 C 3.78125 -39.210938 5.945312 -46.539062 10.28125 -52.09375 C 14.613281 -57.65625 20.457031 -60.4375 27.8125 -60.4375 C 34.320312 -60.4375 39.382812 -58.207031 43 -53.75 L 43.65625 -59.34375 L 58.03125 -59.34375 L 58.03125 -1.96875 C 58.03125 3.21875 56.847656 7.726562 54.484375 11.5625 C 52.128906 15.40625 48.8125 18.332031 44.53125 20.34375 C 40.257812 22.351562 35.253906 23.359375 29.515625 23.359375 C 25.160156 23.359375 20.914062 22.488281 16.78125 20.75 C 12.644531 19.019531 9.519531 16.785156 7.40625 14.046875 L 14.421875 4.390625 C 18.367188 8.816406 23.160156 11.03125 28.796875 11.03125 C 33.003906 11.03125 36.273438 9.90625 38.609375 7.65625 C 40.953125 5.40625 42.125 2.210938 42.125 -1.921875 L 42.125 -5.09375 C 38.46875 -0.96875 33.660156 1.09375 27.703125 1.09375 C 20.566406 1.09375 14.796875 -1.691406 10.390625 -7.265625 C 5.984375 -12.835938 3.78125 -20.234375 3.78125 -29.453125 Z M 19.640625 -28.953125 C 19.640625 -23.578125 20.71875 -19.363281 22.875 -16.3125 C 25.03125 -13.257812 27.988281 -11.734375 31.75 -11.734375 C 36.582031 -11.734375 40.039062 -13.546875 42.125 -17.171875 L 42.125 -42.125 C 40 -45.738281 36.578125 -47.546875 31.859375 -47.546875 C 28.054688 -47.546875 25.066406 -45.992188 22.890625 -42.890625 C 20.722656 -39.785156 19.640625 -35.140625 19.640625 -28.953125 Z M 19.640625 -28.953125 "/></g></g></g><g fill="#050505" fill-opacity="1"><g transform="translate(510.806541, 278.759079)"><g><path d="M 33.40625 1.09375 C 24.695312 1.09375 17.609375 -1.570312 12.140625 -6.90625 C 6.679688 -12.25 3.953125 -19.363281 3.953125 -28.25 L 3.953125 -29.78125 C 3.953125 -35.738281 5.101562 -41.066406 7.40625 -45.765625 C 9.707031 -50.460938 12.96875 -54.082031 17.1875 -56.625 C 21.414062 -59.164062 26.234375 -60.4375 31.640625 -60.4375 C 39.765625 -60.4375 46.15625 -57.875 50.8125 -52.75 C 55.476562 -47.632812 57.8125 -40.378906 57.8125 -30.984375 L 57.8125 -24.515625 L 20.015625 -24.515625 C 20.523438 -20.640625 22.066406 -17.53125 24.640625 -15.1875 C 27.222656 -12.851562 30.488281 -11.6875 34.4375 -11.6875 C 40.550781 -11.6875 45.328125 -13.894531 48.765625 -18.3125 L 56.546875 -9.59375 C 54.171875 -6.226562 50.953125 -3.601562 46.890625 -1.71875 C 42.835938 0.15625 38.34375 1.09375 33.40625 1.09375 Z M 31.59375 -47.609375 C 28.445312 -47.609375 25.894531 -46.546875 23.9375 -44.421875 C 21.976562 -42.304688 20.726562 -39.273438 20.1875 -35.328125 L 42.234375 -35.328125 L 42.234375 -36.578125 C 42.160156 -40.085938 41.207031 -42.800781 39.375 -44.71875 C 37.550781 -46.644531 34.957031 -47.609375 31.59375 -47.609375 Z M 31.59375 -47.609375 "/></g></g></g><g fill="#050505" fill-opacity="1"><g transform="translate(571.514986, 278.759079)"><g><path d="M 33.40625 1.09375 C 24.695312 1.09375 17.609375 -1.570312 12.140625 -6.90625 C 6.679688 -12.25 3.953125 -19.363281 3.953125 -28.25 L 3.953125 -29.78125 C 3.953125 -35.738281 5.101562 -41.066406 7.40625 -45.765625 C 9.707031 -50.460938 12.96875 -54.082031 17.1875 -56.625 C 21.414062 -59.164062 26.234375 -60.4375 31.640625 -60.4375 C 39.765625 -60.4375 46.15625 -57.875 50.8125 -52.75 C 55.476562 -47.632812 57.8125 -40.378906 57.8125 -30.984375 L 57.8125 -24.515625 L 20.015625 -24.515625 C 20.523438 -20.640625 22.066406 -17.53125 24.640625 -15.1875 C 27.222656 -12.851562 30.488281 -11.6875 34.4375 -11.6875 C 40.550781 -11.6875 45.328125 -13.894531 48.765625 -18.3125 L 56.546875 -9.59375 C 54.171875 -6.226562 50.953125 -3.601562 46.890625 -1.71875 C 42.835938 0.15625 38.34375 1.09375 33.40625 1.09375 Z M 31.59375 -47.609375 C 28.445312 -47.609375 25.894531 -46.546875 23.9375 -44.421875 C 21.976562 -42.304688 20.726562 -39.273438 20.1875 -35.328125 L 42.234375 -35.328125 L 42.234375 -36.578125 C 42.160156 -40.085938 41.207031 -42.800781 39.375 -44.71875 C 37.550781 -46.644531 34.957031 -47.609375 31.59375 -47.609375 Z M 31.59375 -47.609375 "/></g></g></g><g fill="#050505" fill-opacity="1"><g transform="translate(632.223431, 278.759079)"><g><path d="M 27.640625 -23.796875 L 21.9375 -18.09375 L 21.9375 0 L 6.09375 0 L 6.09375 -84.25 L 21.9375 -84.25 L 21.9375 -37.578125 L 25.015625 -41.515625 L 40.203125 -59.34375 L 59.234375 -59.34375 L 37.796875 -34.609375 L 61.09375 0 L 42.890625 0 Z M 27.640625 -23.796875 "/></g></g></g><g fill="#050505" fill-opacity="1"><g transform="translate(692.21893, 278.759079)"><g><path d="M 72.0625 0 L 55.609375 0 L 23.578125 -52.546875 L 23.578125 0 L 7.125 0 L 7.125 -79.859375 L 23.578125 -79.859375 L 55.671875 -27.203125 L 55.671875 -79.859375 L 72.0625 -79.859375 Z M 72.0625 0 "/></g></g></g><g fill="#050505" fill-opacity="1"><g transform="translate(771.518286, 278.759079)"><g><path d="M 55.171875 -34.609375 L 23.578125 -34.609375 L 23.578125 -13.21875 L 60.65625 -13.21875 L 60.65625 0 L 7.125 0 L 7.125 -79.859375 L 60.546875 -79.859375 L 60.546875 -66.53125 L 23.578125 -66.53125 L 23.578125 -47.5 L 55.171875 -47.5 Z M 55.171875 -34.609375 "/></g></g></g><g fill="#050505" fill-opacity="1"><g transform="translate(834.694548, 278.759079)"><g><path d="M 69.328125 -23.03125 L 80.078125 -79.859375 L 96.484375 -79.859375 L 78.765625 0 L 62.203125 0 L 49.203125 -53.421875 L 36.203125 0 L 19.640625 0 L 1.921875 -79.859375 L 18.3125 -79.859375 L 29.125 -23.140625 L 42.28125 -79.859375 L 56.21875 -79.859375 Z M 69.328125 -23.03125 "/></g></g></g><g fill="#050505" fill-opacity="1"><g transform="translate(932.913912, 278.759079)"><g><path d="M 48.546875 -20.953125 C 48.546875 -24.054688 47.445312 -26.441406 45.25 -28.109375 C 43.050781 -29.773438 39.097656 -31.53125 33.390625 -33.375 C 27.691406 -35.21875 23.179688 -37.035156 19.859375 -38.828125 C 10.785156 -43.734375 6.25 -50.332031 6.25 -58.625 C 6.25 -62.945312 7.460938 -66.796875 9.890625 -70.171875 C 12.328125 -73.554688 15.820312 -76.195312 20.375 -78.09375 C 24.925781 -80 30.035156 -80.953125 35.703125 -80.953125 C 41.410156 -80.953125 46.492188 -79.914062 50.953125 -77.84375 C 55.410156 -75.78125 58.875 -72.863281 61.34375 -69.09375 C 63.8125 -65.332031 65.046875 -61.0625 65.046875 -56.28125 L 48.59375 -56.28125 C 48.59375 -59.9375 47.441406 -62.773438 45.140625 -64.796875 C 42.835938 -66.828125 39.601562 -67.84375 35.4375 -67.84375 C 31.40625 -67.84375 28.273438 -66.992188 26.046875 -65.296875 C 23.816406 -63.597656 22.703125 -61.359375 22.703125 -58.578125 C 22.703125 -55.984375 24.007812 -53.804688 26.625 -52.046875 C 29.238281 -50.296875 33.085938 -48.648438 38.171875 -47.109375 C 47.535156 -44.296875 54.351562 -40.804688 58.625 -36.640625 C 62.90625 -32.472656 65.046875 -27.28125 65.046875 -21.0625 C 65.046875 -14.144531 62.429688 -8.722656 57.203125 -4.796875 C 51.972656 -0.867188 44.9375 1.09375 36.09375 1.09375 C 29.945312 1.09375 24.347656 -0.03125 19.296875 -2.28125 C 14.253906 -4.53125 10.40625 -7.609375 7.75 -11.515625 C 5.101562 -15.429688 3.78125 -19.96875 3.78125 -25.125 L 20.296875 -25.125 C 20.296875 -16.3125 25.5625 -11.90625 36.09375 -11.90625 C 40 -11.90625 43.050781 -12.695312 45.25 -14.28125 C 47.445312 -15.875 48.546875 -18.097656 48.546875 -20.953125 Z M 48.546875 -20.953125 "/></g></g></g></svg>