<svg xmlns="http://www.w3.org/2000/svg" xmlns:xlink="http://www.w3.org/1999/xlink" width="1200" zoomAndPan="magnify" viewBox="0 0 900 299.999988" height="400" preserveAspectRatio="xMidYMid meet" version="1.0"><defs><g/><clipPath id="b6c8b5306d"><path d="M 345.464844 74.710938 L 407.933594 74.710938 L 407.933594 269.988281 L 345.464844 269.988281 Z M 345.464844 74.710938 " clip-rule="nonzero"/></clipPath></defs><path fill="#ffffff" d="M 158.859375 139.4375 C 154.226562 139.4375 149.902344 140.316406 145.898438 142.066406 C 141.886719 143.820312 138.414062 146.183594 135.472656 149.160156 C 132.527344 152.132812 130.195312 155.625 128.476562 159.628906 C 126.753906 163.636719 125.890625 167.894531 125.890625 172.402344 C 125.890625 176.910156 126.753906 181.171875 128.476562 185.175781 C 130.195312 189.183594 132.527344 192.675781 135.472656 195.648438 C 138.414062 198.625 141.886719 200.988281 145.898438 202.742188 C 149.902344 204.492188 154.226562 205.371094 158.859375 205.371094 C 163.429688 205.371094 167.71875 204.492188 171.726562 202.742188 C 175.730469 200.988281 179.222656 198.609375 182.199219 195.601562 C 185.171875 192.597656 187.519531 189.105469 189.242188 185.128906 C 190.960938 181.152344 191.824219 176.910156 191.824219 172.402344 C 191.824219 167.894531 190.960938 163.65625 189.242188 159.679688 C 187.519531 155.703125 185.171875 152.210938 182.199219 149.207031 C 179.222656 146.199219 175.730469 143.820312 171.726562 142.066406 C 167.71875 140.316406 163.429688 139.4375 158.859375 139.4375 Z M 211.453125 172.402344 C 211.453125 187.054688 206.316406 199.453125 196.050781 209.597656 C 185.65625 219.867188 173.257812 225 158.859375 225 C 144.332031 225 131.933594 219.867188 121.667969 209.597656 C 111.398438 199.328125 106.261719 186.929688 106.261719 172.402344 C 106.261719 157.878906 111.398438 145.480469 121.667969 135.210938 C 131.933594 124.941406 144.332031 119.808594 158.859375 119.808594 C 173.257812 119.808594 185.65625 124.941406 196.050781 135.210938 C 201.1875 140.347656 205.019531 146.011719 207.554688 152.210938 C 210.09375 158.410156 211.390625 165.140625 211.453125 172.402344 " fill-opacity="1" fill-rule="nonzero"/><path fill="#ffffff" d="M 279.074219 139.4375 C 274.441406 139.4375 270.121094 140.316406 266.117188 142.066406 C 262.105469 143.820312 258.632812 146.183594 255.691406 149.160156 C 252.746094 152.132812 250.414062 155.625 248.695312 159.628906 C 246.96875 163.636719 246.109375 167.894531 246.109375 172.402344 C 246.109375 176.910156 246.96875 181.171875 248.695312 185.175781 C 250.414062 189.183594 252.746094 192.675781 255.691406 195.648438 C 258.632812 198.625 262.105469 200.988281 266.117188 202.742188 C 270.121094 204.492188 274.441406 205.371094 279.074219 205.371094 C 283.644531 205.371094 287.933594 204.492188 291.945312 202.742188 C 295.949219 200.988281 299.441406 198.609375 302.414062 195.601562 C 305.390625 192.597656 307.738281 189.105469 309.457031 185.128906 C 311.179688 181.152344 312.042969 176.910156 312.042969 172.402344 C 312.042969 167.894531 311.179688 163.65625 309.457031 159.679688 C 307.738281 155.703125 305.390625 152.210938 302.414062 149.207031 C 299.441406 146.199219 295.949219 143.820312 291.945312 142.066406 C 287.933594 140.316406 283.644531 139.4375 279.074219 139.4375 Z M 331.671875 172.402344 C 331.671875 187.054688 326.535156 199.453125 316.269531 209.597656 C 305.875 219.867188 293.476562 225 279.074219 225 C 264.546875 225 252.148438 219.867188 241.886719 209.597656 C 231.613281 199.328125 226.480469 186.929688 226.480469 172.402344 C 226.480469 157.878906 231.613281 145.480469 241.886719 135.210938 C 252.148438 124.941406 264.546875 119.808594 279.074219 119.808594 C 293.476562 119.808594 305.875 124.941406 316.269531 135.210938 C 321.402344 140.347656 325.238281 146.011719 327.773438 152.210938 C 330.308594 158.410156 331.605469 165.140625 331.671875 172.402344 " fill-opacity="1" fill-rule="nonzero"/><path fill="#cde435" d="M 82.59375 74.820312 C 85.414062 74.820312 87.746094 75.777344 89.59375 77.6875 C 91.4375 79.597656 92.363281 81.925781 92.363281 84.683594 C 92.363281 87.5 91.4375 89.832031 89.59375 91.679688 C 87.746094 93.527344 85.414062 94.449219 82.59375 94.449219 C 74.832031 94.449219 70.949219 98.332031 70.949219 106.097656 L 70.949219 150.988281 C 70.949219 160.007812 68.882812 167.144531 64.75 172.402344 C 68.882812 177.664062 70.949219 184.800781 70.949219 193.816406 L 70.949219 238.710938 C 70.949219 246.476562 74.832031 250.359375 82.59375 250.359375 C 85.414062 250.359375 87.746094 251.28125 89.59375 253.128906 C 91.4375 254.976562 92.363281 257.308594 92.363281 260.125 C 92.363281 262.941406 91.4375 265.292969 89.59375 267.171875 C 87.746094 269.046875 85.414062 269.988281 82.59375 269.988281 C 61.746094 269.988281 51.320312 259.5625 51.320312 238.710938 L 51.320312 193.816406 C 51.320312 186.054688 47.46875 182.171875 39.765625 182.171875 C 36.949219 182.171875 34.617188 181.246094 32.769531 179.402344 C 30.921875 177.554688 30 175.222656 30 172.402344 C 30 169.585938 30.921875 167.253906 32.769531 165.40625 C 34.617188 163.5625 36.949219 162.636719 39.765625 162.636719 C 47.46875 162.636719 51.320312 158.753906 51.320312 150.988281 L 51.320312 106.097656 C 51.320312 85.246094 61.746094 74.820312 82.59375 74.820312 " fill-opacity="1" fill-rule="nonzero"/><g clip-path="url(#b6c8b5306d)"><path fill="#cde435" d="M 386.617188 106.097656 L 386.617188 150.988281 C 386.617188 158.753906 390.464844 162.636719 398.164062 162.636719 C 400.984375 162.636719 403.316406 163.5625 405.164062 165.40625 C 407.011719 167.253906 407.933594 169.585938 407.933594 172.402344 C 407.933594 175.222656 407.011719 177.554688 405.164062 179.402344 C 403.316406 181.246094 400.984375 182.171875 398.164062 182.171875 C 390.464844 182.171875 386.617188 186.054688 386.617188 193.816406 L 386.617188 238.710938 C 386.617188 259.5625 376.191406 269.988281 355.335938 269.988281 C 352.519531 269.988281 350.1875 269.046875 348.339844 267.171875 C 346.496094 265.292969 345.574219 262.941406 345.574219 260.125 C 345.574219 257.308594 346.496094 254.976562 348.339844 253.128906 C 350.1875 251.28125 352.519531 250.359375 355.335938 250.359375 C 363.105469 250.359375 366.988281 246.476562 366.988281 238.710938 L 366.988281 193.816406 C 366.988281 184.800781 369.050781 177.664062 373.183594 172.402344 C 369.050781 167.144531 366.988281 160.007812 366.988281 150.988281 L 366.988281 106.097656 C 366.988281 98.332031 363.105469 94.449219 355.335938 94.449219 C 352.519531 94.449219 350.1875 93.527344 348.339844 91.679688 C 346.496094 89.832031 345.574219 87.5 345.574219 84.683594 C 345.574219 81.925781 346.496094 79.597656 348.339844 77.6875 C 350.1875 75.777344 352.519531 74.820312 355.335938 74.820312 C 376.191406 74.820312 386.617188 85.246094 386.617188 106.097656 " fill-opacity="1" fill-rule="nonzero"/></g><path fill="#cde435" d="M 248.367188 82.609375 C 248.367188 84.238281 248.050781 85.753906 247.425781 87.164062 C 246.796875 88.570312 245.96875 89.808594 244.9375 90.871094 C 243.902344 91.9375 242.664062 92.765625 241.226562 93.363281 C 239.785156 93.957031 238.285156 94.253906 236.71875 94.253906 C 233.835938 94.253906 231.363281 93.253906 229.296875 91.25 C 227.230469 89.246094 225.542969 86.789062 224.226562 83.875 C 222.910156 80.964844 221.957031 77.957031 221.363281 74.859375 C 220.765625 71.761719 220.46875 68.863281 220.46875 66.171875 C 220.46875 55.089844 225.195312 43.882812 234.652344 32.546875 C 236.339844 30.855469 238.25 30.011719 240.382812 30.011719 C 242.570312 30.011719 244.449219 30.796875 246.015625 32.359375 C 247.578125 33.925781 248.367188 35.804688 248.367188 37.996094 C 248.367188 39.0625 248.144531 40.15625 247.707031 41.28125 C 244.886719 48.171875 243.480469 54.714844 243.480469 60.914062 C 243.480469 66.800781 244.761719 72.496094 247.332031 78.007812 C 248.019531 79.570312 248.367188 81.105469 248.367188 82.609375 Z M 217.464844 82.609375 C 217.464844 84.238281 217.152344 85.753906 216.527344 87.164062 C 215.898438 88.570312 215.070312 89.808594 214.035156 90.871094 C 213.003906 91.9375 211.765625 92.765625 210.328125 93.363281 C 208.886719 93.957031 207.382812 94.253906 205.820312 94.253906 C 202.9375 94.253906 200.464844 93.253906 198.398438 91.25 C 196.332031 89.246094 194.640625 86.789062 193.328125 83.875 C 192.011719 80.964844 191.058594 77.957031 190.460938 74.859375 C 189.867188 71.761719 189.570312 68.863281 189.570312 66.171875 C 189.570312 55.089844 194.296875 43.882812 203.75 32.546875 C 205.441406 30.855469 207.351562 30.011719 209.480469 30.011719 C 211.671875 30.011719 213.550781 30.796875 215.117188 32.359375 C 216.679688 33.925781 217.464844 35.804688 217.464844 37.996094 C 217.464844 39.0625 217.246094 40.15625 216.808594 41.28125 C 213.992188 48.171875 212.582031 54.714844 212.582031 60.914062 C 212.582031 66.800781 213.863281 72.496094 216.433594 78.007812 C 217.121094 79.570312 217.464844 81.105469 217.464844 82.609375 " fill-opacity="1" fill-rule="nonzero"/><g fill="#cde435" fill-opacity="1"><g transform="translate(433.627313, 181.209089)"><g><path d="M 3.359375 -26.734375 C 3.359375 -34.828125 5.28125 -41.335938 9.125 -46.265625 C 12.976562 -51.203125 18.164062 -53.671875 24.6875 -53.671875 C 30.46875 -53.671875 34.96875 -51.691406 38.1875 -47.734375 L 38.765625 -52.703125 L 51.53125 -52.703125 L 51.53125 -1.75 C 51.53125 2.851562 50.484375 6.859375 48.390625 10.265625 C 46.296875 13.679688 43.347656 16.28125 39.546875 18.0625 C 35.742188 19.851562 31.296875 20.75 26.203125 20.75 C 22.335938 20.75 18.570312 19.976562 14.90625 18.4375 C 11.238281 16.894531 8.460938 14.90625 6.578125 12.46875 L 12.8125 3.890625 C 16.3125 7.828125 20.566406 9.796875 25.578125 9.796875 C 29.304688 9.796875 32.207031 8.796875 34.28125 6.796875 C 36.363281 4.796875 37.40625 1.960938 37.40625 -1.703125 L 37.40625 -4.53125 C 34.15625 -0.863281 29.882812 0.96875 24.59375 0.96875 C 18.257812 0.96875 13.132812 -1.503906 9.21875 -6.453125 C 5.3125 -11.398438 3.359375 -17.96875 3.359375 -26.15625 Z M 17.4375 -25.71875 C 17.4375 -20.945312 18.394531 -17.203125 20.3125 -14.484375 C 22.226562 -11.773438 24.859375 -10.421875 28.203125 -10.421875 C 32.484375 -10.421875 35.550781 -12.03125 37.40625 -15.25 L 37.40625 -37.40625 C 35.519531 -40.625 32.484375 -42.234375 28.296875 -42.234375 C 24.921875 -42.234375 22.265625 -40.851562 20.328125 -38.09375 C 18.398438 -35.332031 17.4375 -31.207031 17.4375 -25.71875 Z M 17.4375 -25.71875 "/></g></g></g><g fill="#cde435" fill-opacity="1"><g transform="translate(490.550904, 181.209089)"><g><path d="M 29.65625 0.96875 C 21.925781 0.96875 15.632812 -1.398438 10.78125 -6.140625 C 5.925781 -10.878906 3.5 -17.191406 3.5 -25.078125 L 3.5 -26.453125 C 3.5 -31.742188 4.519531 -36.472656 6.5625 -40.640625 C 8.613281 -44.816406 11.515625 -48.03125 15.265625 -50.28125 C 19.015625 -52.539062 23.296875 -53.671875 28.109375 -53.671875 C 35.316406 -53.671875 40.988281 -51.394531 45.125 -46.84375 C 49.269531 -42.300781 51.34375 -35.859375 51.34375 -27.515625 L 51.34375 -21.765625 L 17.78125 -21.765625 C 18.226562 -18.328125 19.597656 -15.566406 21.890625 -13.484375 C 24.179688 -11.410156 27.082031 -10.375 30.59375 -10.375 C 36.007812 -10.375 40.242188 -12.335938 43.296875 -16.265625 L 50.21875 -8.53125 C 48.101562 -5.539062 45.242188 -3.207031 41.640625 -1.53125 C 38.035156 0.132812 34.039062 0.96875 29.65625 0.96875 Z M 28.0625 -42.28125 C 25.257812 -42.28125 22.988281 -41.335938 21.25 -39.453125 C 19.519531 -37.566406 18.410156 -34.867188 17.921875 -31.359375 L 37.5 -31.359375 L 37.5 -32.484375 C 37.4375 -35.597656 36.59375 -38.007812 34.96875 -39.71875 C 33.34375 -41.425781 31.039062 -42.28125 28.0625 -42.28125 Z M 28.0625 -42.28125 "/></g></g></g><g fill="#cde435" fill-opacity="1"><g transform="translate(544.455452, 181.209089)"><g><path d="M 29.65625 0.96875 C 21.925781 0.96875 15.632812 -1.398438 10.78125 -6.140625 C 5.925781 -10.878906 3.5 -17.191406 3.5 -25.078125 L 3.5 -26.453125 C 3.5 -31.742188 4.519531 -36.472656 6.5625 -40.640625 C 8.613281 -44.816406 11.515625 -48.03125 15.265625 -50.28125 C 19.015625 -52.539062 23.296875 -53.671875 28.109375 -53.671875 C 35.316406 -53.671875 40.988281 -51.394531 45.125 -46.84375 C 49.269531 -42.300781 51.34375 -35.859375 51.34375 -27.515625 L 51.34375 -21.765625 L 17.78125 -21.765625 C 18.226562 -18.328125 19.597656 -15.566406 21.890625 -13.484375 C 24.179688 -11.410156 27.082031 -10.375 30.59375 -10.375 C 36.007812 -10.375 40.242188 -12.335938 43.296875 -16.265625 L 50.21875 -8.53125 C 48.101562 -5.539062 45.242188 -3.207031 41.640625 -1.53125 C 38.035156 0.132812 34.039062 0.96875 29.65625 0.96875 Z M 28.0625 -42.28125 C 25.257812 -42.28125 22.988281 -41.335938 21.25 -39.453125 C 19.519531 -37.566406 18.410156 -34.867188 17.921875 -31.359375 L 37.5 -31.359375 L 37.5 -32.484375 C 37.4375 -35.597656 36.59375 -38.007812 34.96875 -39.71875 C 33.34375 -41.425781 31.039062 -42.28125 28.0625 -42.28125 Z M 28.0625 -42.28125 "/></g></g></g><g fill="#cde435" fill-opacity="1"><g transform="translate(598.360001, 181.209089)"><g><path d="M 24.546875 -21.140625 L 19.484375 -16.078125 L 19.484375 0 L 5.40625 0 L 5.40625 -74.8125 L 19.484375 -74.8125 L 19.484375 -33.359375 L 22.203125 -36.875 L 35.703125 -52.703125 L 52.609375 -52.703125 L 33.5625 -30.734375 L 54.265625 0 L 38.09375 0 Z M 24.546875 -21.140625 "/></g></g></g><g fill="#cde435" fill-opacity="1"><g transform="translate(651.631523, 181.209089)"><g><path d="M 64.046875 0 L 49.4375 0 L 49.4375 -30.390625 L 20.9375 -30.390625 L 20.9375 0 L 6.328125 0 L 6.328125 -70.921875 L 20.9375 -70.921875 L 20.9375 -42.171875 L 49.4375 -42.171875 L 49.4375 -70.921875 L 64.046875 -70.921875 Z M 64.046875 0 "/></g></g></g><g fill="#cde435" fill-opacity="1"><g transform="translate(722.092119, 181.209089)"><g><path d="M 60 -70.921875 L 60 -24.203125 C 60 -16.441406 57.570312 -10.304688 52.71875 -5.796875 C 47.863281 -1.285156 41.234375 0.96875 32.828125 0.96875 C 24.546875 0.96875 17.96875 -1.21875 13.09375 -5.59375 C 8.226562 -9.976562 5.75 -16.003906 5.65625 -23.671875 L 5.65625 -70.921875 L 20.265625 -70.921875 L 20.265625 -24.109375 C 20.265625 -19.460938 21.375 -16.078125 23.59375 -13.953125 C 25.820312 -11.828125 28.898438 -10.765625 32.828125 -10.765625 C 41.046875 -10.765625 45.21875 -15.082031 45.34375 -23.71875 L 45.34375 -70.921875 Z M 60 -70.921875 "/></g></g></g><g fill="#cde435" fill-opacity="1"><g transform="translate(787.731983, 181.209089)"><g><path d="M 6.328125 0 L 6.328125 -70.921875 L 31.171875 -70.921875 C 39.773438 -70.921875 46.300781 -69.269531 50.75 -65.96875 C 55.195312 -62.675781 57.421875 -57.847656 57.421875 -51.484375 C 57.421875 -48.003906 56.523438 -44.941406 54.734375 -42.296875 C 52.953125 -39.648438 50.472656 -37.710938 47.296875 -36.484375 C 50.929688 -35.566406 53.796875 -33.726562 55.890625 -30.96875 C 57.984375 -28.21875 59.03125 -24.84375 59.03125 -20.84375 C 59.03125 -14.03125 56.851562 -8.867188 52.5 -5.359375 C 48.15625 -1.847656 41.957031 -0.0625 33.90625 0 Z M 20.9375 -30.875 L 20.9375 -11.734375 L 33.46875 -11.734375 C 36.90625 -11.734375 39.585938 -12.550781 41.515625 -14.1875 C 43.453125 -15.832031 44.421875 -18.101562 44.421875 -21 C 44.421875 -27.488281 41.0625 -30.78125 34.34375 -30.875 Z M 20.9375 -41.203125 L 31.75 -41.203125 C 39.125 -41.335938 42.8125 -44.273438 42.8125 -50.015625 C 42.8125 -53.234375 41.878906 -55.546875 40.015625 -56.953125 C 38.148438 -58.367188 35.203125 -59.078125 31.171875 -59.078125 L 20.9375 -59.078125 Z M 20.9375 -41.203125 "/></g></g></g></svg>