<svg xmlns="http://www.w3.org/2000/svg" xmlns:xlink="http://www.w3.org/1999/xlink" width="500" zoomAndPan="magnify" viewBox="0 0 375 374.999991" height="500" preserveAspectRatio="xMidYMid meet" version="1.0"><defs><clipPath id="c09878b458"><path d="M 0 112 L 62 112 L 62 306.9375 L 0 306.9375 Z M 0 112 " clip-rule="nonzero"/></clipPath><clipPath id="830f67774c"><path d="M 313.007812 112.796875 L 374.992188 112.796875 L 374.992188 306.554688 L 313.007812 306.554688 Z M 313.007812 112.796875 " clip-rule="nonzero"/></clipPath><clipPath id="8379adae6f"><path d="M 158 68.4375 L 217 68.4375 L 217 133 L 158 133 Z M 158 68.4375 " clip-rule="nonzero"/></clipPath></defs><path fill="#f4f4f4" d="M 127.855469 177.019531 C 123.257812 177.019531 118.972656 177.890625 114.996094 179.628906 C 111.019531 181.367188 107.570312 183.714844 104.652344 186.664062 C 101.730469 189.617188 99.417969 193.082031 97.710938 197.054688 C 96 201.03125 95.144531 205.257812 95.144531 209.730469 C 95.144531 214.203125 96 218.425781 97.710938 222.402344 C 99.417969 226.378906 101.730469 229.84375 104.652344 232.792969 C 107.570312 235.746094 111.019531 238.089844 114.996094 239.832031 C 118.972656 241.570312 123.257812 242.4375 127.855469 242.4375 C 132.390625 242.4375 136.648438 241.570312 140.621094 239.832031 C 144.597656 238.089844 148.0625 235.730469 151.015625 232.746094 C 153.964844 229.765625 156.292969 226.304688 158.003906 222.355469 C 159.710938 218.410156 160.566406 214.203125 160.566406 209.730469 C 160.566406 205.257812 159.710938 201.050781 158.003906 197.101562 C 156.292969 193.15625 153.964844 189.695312 151.015625 186.710938 C 148.0625 183.730469 144.597656 181.367188 140.621094 179.628906 C 136.648438 177.890625 132.390625 177.019531 127.855469 177.019531 Z M 180.042969 209.730469 C 180.042969 224.265625 174.945312 236.566406 164.757812 246.632812 C 154.445312 256.820312 142.144531 261.914062 127.855469 261.914062 C 113.441406 261.914062 101.140625 256.820312 90.953125 246.632812 C 80.761719 236.445312 75.667969 224.140625 75.667969 209.730469 C 75.667969 195.316406 80.761719 183.015625 90.953125 172.824219 C 101.140625 162.636719 113.441406 157.542969 127.855469 157.542969 C 142.144531 157.542969 154.445312 162.636719 164.757812 172.824219 C 169.851562 177.921875 173.65625 183.542969 176.175781 189.695312 C 178.691406 195.84375 179.976562 202.523438 180.042969 209.730469 " fill-opacity="1" fill-rule="nonzero"/><path fill="#f4f4f4" d="M 247.136719 177.019531 C 242.539062 177.019531 238.253906 177.890625 234.277344 179.628906 C 230.300781 181.367188 226.851562 183.714844 223.933594 186.664062 C 221.011719 189.617188 218.699219 193.082031 216.992188 197.054688 C 215.28125 201.03125 214.429688 205.257812 214.429688 209.730469 C 214.429688 214.203125 215.28125 218.425781 216.992188 222.402344 C 218.699219 226.378906 221.011719 229.84375 223.933594 232.792969 C 226.851562 235.746094 230.300781 238.089844 234.277344 239.832031 C 238.253906 241.570312 242.539062 242.4375 247.136719 242.4375 C 251.671875 242.4375 255.925781 241.570312 259.90625 239.832031 C 263.878906 238.089844 267.34375 235.730469 270.296875 232.746094 C 273.246094 229.765625 275.574219 226.304688 277.28125 222.355469 C 278.988281 218.410156 279.847656 214.203125 279.847656 209.730469 C 279.847656 205.257812 278.988281 201.050781 277.28125 197.101562 C 275.574219 193.15625 273.246094 189.695312 270.296875 186.710938 C 267.34375 183.730469 263.878906 181.367188 259.90625 179.628906 C 255.925781 177.890625 251.671875 177.019531 247.136719 177.019531 Z M 299.324219 209.730469 C 299.324219 224.265625 294.226562 236.566406 284.039062 246.632812 C 273.726562 256.820312 261.425781 261.914062 247.136719 261.914062 C 232.722656 261.914062 220.421875 256.820312 210.238281 246.632812 C 200.046875 236.445312 194.953125 224.140625 194.953125 209.730469 C 194.953125 195.316406 200.046875 183.015625 210.238281 172.824219 C 220.421875 162.636719 232.722656 157.542969 247.136719 157.542969 C 261.425781 157.542969 273.726562 162.636719 284.039062 172.824219 C 289.132812 177.921875 292.941406 183.542969 295.457031 189.695312 C 297.972656 195.84375 299.257812 202.523438 299.324219 209.730469 " fill-opacity="1" fill-rule="nonzero"/><g clip-path="url(#c09878b458)"><path fill="#cde435" d="M 52.1875 112.90625 C 54.980469 112.90625 57.292969 113.855469 59.128906 115.75 C 60.960938 117.644531 61.878906 119.957031 61.878906 122.691406 C 61.878906 125.488281 60.960938 127.800781 59.128906 129.632812 C 57.292969 131.464844 54.980469 132.382812 52.1875 132.382812 C 44.480469 132.382812 40.628906 136.234375 40.628906 143.9375 L 40.628906 188.480469 C 40.628906 197.429688 38.578125 204.511719 34.480469 209.730469 C 38.578125 214.949219 40.628906 222.03125 40.628906 230.976562 L 40.628906 275.519531 C 40.628906 283.222656 44.480469 287.078125 52.1875 287.078125 C 54.980469 287.078125 57.292969 287.992188 59.128906 289.828125 C 60.960938 291.660156 61.878906 293.972656 61.878906 296.769531 C 61.878906 299.5625 60.960938 301.894531 59.128906 303.757812 C 57.292969 305.621094 54.980469 306.554688 52.1875 306.554688 C 31.5 306.554688 21.152344 296.210938 21.152344 275.519531 L 21.152344 230.976562 C 21.152344 223.273438 17.332031 219.421875 9.691406 219.421875 C 6.898438 219.421875 4.582031 218.503906 2.746094 216.671875 C 0.914062 214.839844 0 212.523438 0 209.730469 C 0 206.933594 0.914062 204.621094 2.746094 202.785156 C 4.582031 200.957031 6.898438 200.039062 9.691406 200.039062 C 17.332031 200.039062 21.152344 196.1875 21.152344 188.480469 L 21.152344 143.9375 C 21.152344 123.25 31.5 112.90625 52.1875 112.90625 " fill-opacity="1" fill-rule="nonzero"/></g><g clip-path="url(#830f67774c)"><path fill="#cde435" d="M 353.839844 143.9375 L 353.839844 188.480469 C 353.839844 196.1875 357.660156 200.039062 365.300781 200.039062 C 368.097656 200.039062 370.410156 200.957031 372.242188 202.785156 C 374.078125 204.621094 374.992188 206.933594 374.992188 209.730469 C 374.992188 212.523438 374.078125 214.839844 372.242188 216.671875 C 370.410156 218.503906 368.097656 219.421875 365.300781 219.421875 C 357.660156 219.421875 353.839844 223.273438 353.839844 230.976562 L 353.839844 275.519531 C 353.839844 296.210938 343.496094 306.554688 322.804688 306.554688 C 320.011719 306.554688 317.695312 305.621094 315.863281 303.757812 C 314.03125 301.894531 313.117188 299.5625 313.117188 296.769531 C 313.117188 293.972656 314.03125 291.660156 315.863281 289.828125 C 317.695312 287.992188 320.011719 287.078125 322.804688 287.078125 C 330.511719 287.078125 334.363281 283.222656 334.363281 275.519531 L 334.363281 230.976562 C 334.363281 222.03125 336.414062 214.949219 340.511719 209.730469 C 336.414062 204.511719 334.363281 197.429688 334.363281 188.480469 L 334.363281 143.9375 C 334.363281 136.234375 330.511719 132.382812 322.804688 132.382812 C 320.011719 132.382812 317.695312 131.464844 315.863281 129.632812 C 314.03125 127.800781 313.117188 125.488281 313.117188 122.691406 C 313.117188 119.957031 314.03125 117.644531 315.863281 115.75 C 317.695312 113.855469 320.011719 112.90625 322.804688 112.90625 C 343.496094 112.90625 353.839844 123.25 353.839844 143.9375 " fill-opacity="1" fill-rule="nonzero"/></g><g clip-path="url(#8379adae6f)"><path fill="#cde435" d="M 216.664062 120.632812 C 216.664062 122.25 216.351562 123.753906 215.730469 125.152344 C 215.109375 126.550781 214.289062 127.777344 213.265625 128.832031 C 212.238281 129.890625 211.007812 130.710938 209.582031 131.300781 C 208.152344 131.894531 206.664062 132.1875 205.109375 132.1875 C 202.25 132.1875 199.796875 131.195312 197.746094 129.207031 C 195.695312 127.21875 194.019531 124.777344 192.714844 121.890625 C 191.410156 119 190.460938 116.019531 189.871094 112.945312 C 189.28125 109.867188 188.988281 106.996094 188.988281 104.324219 C 188.988281 93.328125 193.675781 82.207031 203.058594 70.960938 C 204.734375 69.285156 206.632812 68.445312 208.746094 68.445312 C 210.914062 68.445312 212.78125 69.222656 214.335938 70.777344 C 215.886719 72.328125 216.664062 74.195312 216.664062 76.367188 C 216.664062 77.425781 216.445312 78.511719 216.015625 79.628906 C 213.214844 86.464844 211.820312 92.953125 211.820312 99.105469 C 211.820312 104.945312 213.089844 110.601562 215.640625 116.066406 C 216.324219 117.621094 216.664062 119.140625 216.664062 120.632812 Z M 186.007812 120.632812 C 186.007812 122.25 185.695312 123.753906 185.074219 125.152344 C 184.449219 126.550781 183.628906 127.777344 182.605469 128.832031 C 181.578125 129.890625 180.351562 130.710938 178.921875 131.300781 C 177.492188 131.894531 176.003906 132.1875 174.449219 132.1875 C 171.589844 132.1875 169.140625 131.195312 167.089844 129.207031 C 165.039062 127.21875 163.359375 124.777344 162.054688 121.890625 C 160.75 119 159.804688 116.019531 159.214844 112.945312 C 158.625 109.867188 158.328125 106.996094 158.328125 104.324219 C 158.328125 93.328125 163.019531 82.207031 172.398438 70.960938 C 174.078125 69.285156 175.972656 68.445312 178.085938 68.445312 C 180.257812 68.445312 182.121094 69.222656 183.675781 70.777344 C 185.230469 72.328125 186.007812 74.195312 186.007812 76.367188 C 186.007812 77.425781 185.789062 78.511719 185.351562 79.628906 C 182.558594 86.464844 181.160156 92.953125 181.160156 99.105469 C 181.160156 104.945312 182.433594 110.601562 184.980469 116.066406 C 185.664062 117.621094 186.007812 119.140625 186.007812 120.632812 " fill-opacity="1" fill-rule="nonzero"/></g></svg>