<svg xmlns="http://www.w3.org/2000/svg" xmlns:xlink="http://www.w3.org/1999/xlink" width="500" zoomAndPan="magnify" viewBox="0 0 375 374.999991" height="500" preserveAspectRatio="xMidYMid meet" version="1.0"><defs><g/><clipPath id="c5fdd5e087"><path d="M 60.074219 87 L 103 87 L 103 219.636719 L 60.074219 219.636719 Z M 60.074219 87 " clip-rule="nonzero"/></clipPath><clipPath id="df845ec774"><path d="M 272.792969 87.78125 L 314.917969 87.78125 L 314.917969 219.457031 L 272.792969 219.457031 Z M 272.792969 87.78125 " clip-rule="nonzero"/></clipPath><clipPath id="f848dfb115"><path d="M 167 57.636719 L 208 57.636719 L 208 101 L 167 101 Z M 167 57.636719 " clip-rule="nonzero"/></clipPath></defs><path fill="#050505" d="M 146.964844 131.425781 C 143.839844 131.425781 140.925781 132.019531 138.222656 133.199219 C 135.519531 134.382812 133.179688 135.976562 131.195312 137.980469 C 129.210938 139.988281 127.636719 142.339844 126.476562 145.042969 C 125.316406 147.746094 124.734375 150.617188 124.734375 153.65625 C 124.734375 156.695312 125.316406 159.566406 126.476562 162.269531 C 127.636719 164.972656 129.210938 167.324219 131.195312 169.332031 C 133.179688 171.335938 135.519531 172.929688 138.222656 174.113281 C 140.925781 175.292969 143.839844 175.886719 146.964844 175.886719 C 150.046875 175.886719 152.9375 175.292969 155.640625 174.113281 C 158.339844 172.929688 160.695312 171.324219 162.703125 169.300781 C 164.707031 167.273438 166.289062 164.917969 167.453125 162.238281 C 168.613281 159.554688 169.191406 156.695312 169.191406 153.65625 C 169.191406 150.617188 168.613281 147.757812 167.453125 145.074219 C 166.289062 142.394531 164.707031 140.039062 162.703125 138.011719 C 160.695312 135.988281 158.339844 134.382812 155.640625 133.199219 C 152.9375 132.019531 150.046875 131.425781 146.964844 131.425781 Z M 182.429688 153.65625 C 182.429688 163.535156 178.964844 171.894531 172.042969 178.734375 C 165.035156 185.660156 156.675781 189.121094 146.964844 189.121094 C 137.167969 189.121094 128.808594 185.660156 121.886719 178.734375 C 114.960938 171.8125 111.5 163.449219 111.5 153.65625 C 111.5 143.863281 114.960938 135.503906 121.886719 128.578125 C 128.808594 121.652344 137.167969 118.191406 146.964844 118.191406 C 156.675781 118.191406 165.035156 121.652344 172.042969 128.578125 C 175.503906 132.039062 178.089844 135.859375 179.800781 140.039062 C 181.511719 144.21875 182.386719 148.757812 182.429688 153.65625 " fill-opacity="1" fill-rule="nonzero"/><path fill="#050505" d="M 228.027344 131.425781 C 224.902344 131.425781 221.988281 132.019531 219.289062 133.199219 C 216.585938 134.382812 214.242188 135.976562 212.257812 137.980469 C 210.273438 139.988281 208.699219 142.339844 207.539062 145.042969 C 206.378906 147.746094 205.796875 150.617188 205.796875 153.65625 C 205.796875 156.695312 206.378906 159.566406 207.539062 162.269531 C 208.699219 164.972656 210.273438 167.324219 212.257812 169.332031 C 214.242188 171.335938 216.585938 172.929688 219.289062 174.113281 C 221.988281 175.292969 224.902344 175.886719 228.027344 175.886719 C 231.109375 175.886719 234 175.292969 236.703125 174.113281 C 239.40625 172.929688 241.757812 171.324219 243.765625 169.300781 C 245.769531 167.273438 247.355469 164.917969 248.515625 162.238281 C 249.675781 159.554688 250.257812 156.695312 250.257812 153.65625 C 250.257812 150.617188 249.675781 147.757812 248.515625 145.074219 C 247.355469 142.394531 245.769531 140.039062 243.765625 138.011719 C 241.757812 135.988281 239.40625 134.382812 236.703125 133.199219 C 234 132.019531 231.109375 131.425781 228.027344 131.425781 Z M 263.492188 153.65625 C 263.492188 163.535156 260.03125 171.894531 253.105469 178.734375 C 246.097656 185.660156 237.738281 189.121094 228.027344 189.121094 C 218.230469 189.121094 209.871094 185.660156 202.949219 178.734375 C 196.023438 171.8125 192.5625 163.449219 192.5625 153.65625 C 192.5625 143.863281 196.023438 135.503906 202.949219 128.578125 C 209.871094 121.652344 218.230469 118.191406 228.027344 118.191406 C 237.738281 118.191406 246.097656 121.652344 253.105469 128.578125 C 256.566406 132.039062 259.152344 135.859375 260.863281 140.039062 C 262.574219 144.21875 263.449219 148.757812 263.492188 153.65625 " fill-opacity="1" fill-rule="nonzero"/><g clip-path="url(#c5fdd5e087)"><path fill="#333333" d="M 95.539062 87.855469 C 97.4375 87.855469 99.011719 88.5 100.257812 89.789062 C 101.503906 91.074219 102.125 92.648438 102.125 94.503906 C 102.125 96.40625 101.503906 97.980469 100.257812 99.222656 C 99.011719 100.46875 97.4375 101.089844 95.539062 101.089844 C 90.304688 101.089844 87.6875 103.710938 87.6875 108.945312 L 87.6875 139.214844 C 87.6875 145.296875 86.292969 150.109375 83.507812 153.65625 C 86.292969 157.203125 87.6875 162.015625 87.6875 168.09375 L 87.6875 198.367188 C 87.6875 203.601562 90.304688 206.222656 95.539062 206.222656 C 97.4375 206.222656 99.011719 206.84375 100.257812 208.089844 C 101.503906 209.335938 102.125 210.90625 102.125 212.808594 C 102.125 214.707031 101.503906 216.292969 100.257812 217.558594 C 99.011719 218.824219 97.4375 219.457031 95.539062 219.457031 C 81.480469 219.457031 74.449219 212.425781 74.449219 198.367188 L 74.449219 168.09375 C 74.449219 162.859375 71.851562 160.242188 66.660156 160.242188 C 64.761719 160.242188 63.1875 159.621094 61.941406 158.375 C 60.695312 157.128906 60.074219 155.554688 60.074219 153.65625 C 60.074219 151.757812 60.695312 150.183594 61.941406 148.9375 C 63.1875 147.695312 64.761719 147.070312 66.660156 147.070312 C 71.851562 147.070312 74.449219 144.453125 74.449219 139.214844 L 74.449219 108.945312 C 74.449219 94.882812 81.480469 87.855469 95.539062 87.855469 " fill-opacity="1" fill-rule="nonzero"/></g><g clip-path="url(#df845ec774)"><path fill="#333333" d="M 300.542969 108.945312 L 300.542969 139.214844 C 300.542969 144.453125 303.136719 147.070312 308.328125 147.070312 C 310.230469 147.070312 311.804688 147.695312 313.046875 148.9375 C 314.292969 150.183594 314.917969 151.757812 314.917969 153.65625 C 314.917969 155.554688 314.292969 157.128906 313.046875 158.375 C 311.804688 159.621094 310.230469 160.242188 308.328125 160.242188 C 303.136719 160.242188 300.542969 162.859375 300.542969 168.09375 L 300.542969 198.367188 C 300.542969 212.425781 293.511719 219.457031 279.449219 219.457031 C 277.550781 219.457031 275.980469 218.824219 274.734375 217.558594 C 273.488281 216.292969 272.867188 214.707031 272.867188 212.808594 C 272.867188 210.90625 273.488281 209.335938 274.734375 208.089844 C 275.980469 206.84375 277.550781 206.222656 279.449219 206.222656 C 284.6875 206.222656 287.304688 203.601562 287.304688 198.367188 L 287.304688 168.09375 C 287.304688 162.015625 288.699219 157.203125 291.484375 153.65625 C 288.699219 150.109375 287.304688 145.296875 287.304688 139.214844 L 287.304688 108.945312 C 287.304688 103.710938 284.6875 101.089844 279.449219 101.089844 C 277.550781 101.089844 275.980469 100.46875 274.734375 99.222656 C 273.488281 97.980469 272.867188 96.40625 272.867188 94.503906 C 272.867188 92.648438 273.488281 91.074219 274.734375 89.789062 C 275.980469 88.5 277.550781 87.855469 279.449219 87.855469 C 293.511719 87.855469 300.542969 94.882812 300.542969 108.945312 " fill-opacity="1" fill-rule="nonzero"/></g><g clip-path="url(#f848dfb115)"><path fill="#333333" d="M 207.320312 93.105469 C 207.320312 94.203125 207.105469 95.226562 206.683594 96.175781 C 206.261719 97.128906 205.703125 97.960938 205.007812 98.679688 C 204.3125 99.398438 203.472656 99.957031 202.503906 100.359375 C 201.53125 100.761719 200.519531 100.957031 199.464844 100.957031 C 197.519531 100.957031 195.855469 100.285156 194.460938 98.933594 C 193.066406 97.582031 191.929688 95.925781 191.042969 93.960938 C 190.15625 91.996094 189.511719 89.972656 189.109375 87.882812 C 188.710938 85.792969 188.507812 83.839844 188.507812 82.023438 C 188.507812 74.550781 191.695312 66.992188 198.070312 59.351562 C 199.210938 58.210938 200.5 57.640625 201.933594 57.640625 C 203.410156 57.640625 204.679688 58.167969 205.734375 59.222656 C 206.789062 60.28125 207.320312 61.546875 207.320312 63.023438 C 207.320312 63.742188 207.167969 64.480469 206.875 65.238281 C 204.972656 69.886719 204.023438 74.296875 204.023438 78.476562 C 204.023438 82.445312 204.890625 86.289062 206.621094 90.003906 C 207.085938 91.058594 207.320312 92.09375 207.320312 93.105469 Z M 186.484375 93.105469 C 186.484375 94.203125 186.269531 95.226562 185.847656 96.175781 C 185.425781 97.128906 184.867188 97.960938 184.171875 98.679688 C 183.472656 99.398438 182.640625 99.957031 181.667969 100.359375 C 180.699219 100.761719 179.683594 100.957031 178.628906 100.957031 C 176.6875 100.957031 175.019531 100.285156 173.625 98.933594 C 172.234375 97.582031 171.09375 95.925781 170.207031 93.960938 C 169.320312 91.996094 168.675781 89.972656 168.273438 87.882812 C 167.875 85.792969 167.671875 83.839844 167.671875 82.023438 C 167.671875 74.550781 170.859375 66.992188 177.234375 59.351562 C 178.375 58.210938 179.664062 57.640625 181.097656 57.640625 C 182.574219 57.640625 183.84375 58.167969 184.898438 59.222656 C 185.953125 60.28125 186.484375 61.546875 186.484375 63.023438 C 186.484375 63.742188 186.335938 64.480469 186.039062 65.238281 C 184.140625 69.886719 183.1875 74.296875 183.1875 78.476562 C 183.1875 82.445312 184.054688 86.289062 185.785156 90.003906 C 186.25 91.058594 186.484375 92.09375 186.484375 93.105469 " fill-opacity="1" fill-rule="nonzero"/></g><g fill="#050505" fill-opacity="1"><g transform="translate(76.56959, 302.290717)"><g><path d="M 1.78125 -14.203125 C 1.78125 -18.492188 2.800781 -21.945312 4.84375 -24.5625 C 6.894531 -27.1875 9.648438 -28.5 13.109375 -28.5 C 16.179688 -28.5 18.570312 -27.445312 20.28125 -25.34375 L 20.59375 -27.984375 L 27.359375 -27.984375 L 27.359375 -0.9375 C 27.359375 1.507812 26.800781 3.640625 25.6875 5.453125 C 24.582031 7.265625 23.019531 8.644531 21 9.59375 C 18.976562 10.539062 16.617188 11.015625 13.921875 11.015625 C 11.867188 11.015625 9.863281 10.601562 7.90625 9.78125 C 5.957031 8.96875 4.484375 7.914062 3.484375 6.625 L 6.796875 2.0625 C 8.660156 4.15625 10.921875 5.203125 13.578125 5.203125 C 15.554688 5.203125 17.097656 4.671875 18.203125 3.609375 C 19.304688 2.546875 19.859375 1.039062 19.859375 -0.90625 L 19.859375 -2.40625 C 18.140625 -0.457031 15.875 0.515625 13.0625 0.515625 C 9.695312 0.515625 6.972656 -0.796875 4.890625 -3.421875 C 2.816406 -6.054688 1.78125 -9.546875 1.78125 -13.890625 Z M 9.265625 -13.65625 C 9.265625 -11.125 9.769531 -9.132812 10.78125 -7.6875 C 11.800781 -6.25 13.195312 -5.53125 14.96875 -5.53125 C 17.25 -5.53125 18.878906 -6.382812 19.859375 -8.09375 L 19.859375 -19.859375 C 18.859375 -21.566406 17.25 -22.421875 15.03125 -22.421875 C 13.238281 -22.421875 11.828125 -21.6875 10.796875 -20.21875 C 9.773438 -18.757812 9.265625 -16.570312 9.265625 -13.65625 Z M 9.265625 -13.65625 "/></g></g></g><g fill="#050505" fill-opacity="1"><g transform="translate(106.800036, 302.290717)"><g><path d="M 15.75 0.515625 C 11.644531 0.515625 8.300781 -0.738281 5.71875 -3.25 C 3.144531 -5.769531 1.859375 -9.125 1.859375 -13.3125 L 1.859375 -14.046875 C 1.859375 -16.859375 2.398438 -19.367188 3.484375 -21.578125 C 4.578125 -23.796875 6.117188 -25.503906 8.109375 -26.703125 C 10.097656 -27.898438 12.367188 -28.5 14.921875 -28.5 C 18.753906 -28.5 21.769531 -27.289062 23.96875 -24.875 C 26.164062 -22.46875 27.265625 -19.046875 27.265625 -14.609375 L 27.265625 -11.5625 L 9.4375 -11.5625 C 9.675781 -9.726562 10.40625 -8.257812 11.625 -7.15625 C 12.84375 -6.0625 14.382812 -5.515625 16.25 -5.515625 C 19.125 -5.515625 21.375 -6.554688 23 -8.640625 L 26.671875 -4.53125 C 25.546875 -2.9375 24.023438 -1.695312 22.109375 -0.8125 C 20.203125 0.0703125 18.082031 0.515625 15.75 0.515625 Z M 14.890625 -22.453125 C 13.410156 -22.453125 12.207031 -21.953125 11.28125 -20.953125 C 10.363281 -19.953125 9.773438 -18.519531 9.515625 -16.65625 L 19.921875 -16.65625 L 19.921875 -17.25 C 19.878906 -18.90625 19.425781 -20.1875 18.5625 -21.09375 C 17.707031 -22 16.484375 -22.453125 14.890625 -22.453125 Z M 14.890625 -22.453125 "/></g></g></g><g fill="#050505" fill-opacity="1"><g transform="translate(135.427157, 302.290717)"><g><path d="M 15.75 0.515625 C 11.644531 0.515625 8.300781 -0.738281 5.71875 -3.25 C 3.144531 -5.769531 1.859375 -9.125 1.859375 -13.3125 L 1.859375 -14.046875 C 1.859375 -16.859375 2.398438 -19.367188 3.484375 -21.578125 C 4.578125 -23.796875 6.117188 -25.503906 8.109375 -26.703125 C 10.097656 -27.898438 12.367188 -28.5 14.921875 -28.5 C 18.753906 -28.5 21.769531 -27.289062 23.96875 -24.875 C 26.164062 -22.46875 27.265625 -19.046875 27.265625 -14.609375 L 27.265625 -11.5625 L 9.4375 -11.5625 C 9.675781 -9.726562 10.40625 -8.257812 11.625 -7.15625 C 12.84375 -6.0625 14.382812 -5.515625 16.25 -5.515625 C 19.125 -5.515625 21.375 -6.554688 23 -8.640625 L 26.671875 -4.53125 C 25.546875 -2.9375 24.023438 -1.695312 22.109375 -0.8125 C 20.203125 0.0703125 18.082031 0.515625 15.75 0.515625 Z M 14.890625 -22.453125 C 13.410156 -22.453125 12.207031 -21.953125 11.28125 -20.953125 C 10.363281 -19.953125 9.773438 -18.519531 9.515625 -16.65625 L 19.921875 -16.65625 L 19.921875 -17.25 C 19.878906 -18.90625 19.425781 -20.1875 18.5625 -21.09375 C 17.707031 -22 16.484375 -22.453125 14.890625 -22.453125 Z M 14.890625 -22.453125 "/></g></g></g><g fill="#050505" fill-opacity="1"><g transform="translate(164.054279, 302.290717)"><g><path d="M 13.03125 -11.21875 L 10.34375 -8.53125 L 10.34375 0 L 2.875 0 L 2.875 -39.734375 L 10.34375 -39.734375 L 10.34375 -17.71875 L 11.796875 -19.578125 L 18.953125 -27.984375 L 27.9375 -27.984375 L 17.8125 -16.3125 L 28.8125 0 L 20.21875 0 Z M 13.03125 -11.21875 "/></g></g></g><g fill="#050505" fill-opacity="1"><g transform="translate(192.345218, 302.290717)"><g><path d="M 34.015625 0 L 26.25 0 L 26.25 -16.140625 L 11.125 -16.140625 L 11.125 0 L 3.359375 0 L 3.359375 -37.65625 L 11.125 -37.65625 L 11.125 -22.390625 L 26.25 -22.390625 L 26.25 -37.65625 L 34.015625 -37.65625 Z M 34.015625 0 "/></g></g></g><g fill="#050505" fill-opacity="1"><g transform="translate(229.76477, 302.290717)"><g><path d="M 31.859375 -37.65625 L 31.859375 -12.859375 C 31.859375 -8.734375 30.566406 -5.472656 27.984375 -3.078125 C 25.410156 -0.679688 21.894531 0.515625 17.4375 0.515625 C 13.039062 0.515625 9.546875 -0.644531 6.953125 -2.96875 C 4.367188 -5.300781 3.050781 -8.5 3 -12.5625 L 3 -37.65625 L 10.765625 -37.65625 L 10.765625 -12.796875 C 10.765625 -10.335938 11.351562 -8.539062 12.53125 -7.40625 C 13.707031 -6.28125 15.34375 -5.71875 17.4375 -5.71875 C 21.789062 -5.71875 24.003906 -8.007812 24.078125 -12.59375 L 24.078125 -37.65625 Z M 31.859375 -37.65625 "/></g></g></g><g fill="#050505" fill-opacity="1"><g transform="translate(264.624173, 302.290717)"><g><path d="M 3.359375 0 L 3.359375 -37.65625 L 16.546875 -37.65625 C 21.117188 -37.65625 24.585938 -36.78125 26.953125 -35.03125 C 29.316406 -33.28125 30.5 -30.71875 30.5 -27.34375 C 30.5 -25.5 30.019531 -23.875 29.0625 -22.46875 C 28.113281 -21.0625 26.796875 -20.03125 25.109375 -19.375 C 27.046875 -18.882812 28.566406 -17.90625 29.671875 -16.4375 C 30.785156 -14.976562 31.34375 -13.1875 31.34375 -11.0625 C 31.34375 -7.445312 30.1875 -4.707031 27.875 -2.84375 C 25.570312 -0.976562 22.28125 -0.03125 18 0 Z M 11.125 -16.390625 L 11.125 -6.234375 L 17.765625 -6.234375 C 19.597656 -6.234375 21.023438 -6.664062 22.046875 -7.53125 C 23.078125 -8.40625 23.59375 -9.609375 23.59375 -11.140625 C 23.59375 -14.585938 21.804688 -16.335938 18.234375 -16.390625 Z M 11.125 -21.875 L 16.859375 -21.875 C 20.773438 -21.945312 22.734375 -23.507812 22.734375 -26.5625 C 22.734375 -28.269531 22.238281 -29.5 21.25 -30.25 C 20.257812 -31 18.691406 -31.375 16.546875 -31.375 L 11.125 -31.375 Z M 11.125 -21.875 "/></g></g></g></svg>